<?xml version="1.0" encoding="UTF-8"?>
<svg id="Layer_2" data-name="Layer 2" xmlns="http://www.w3.org/2000/svg" viewBox="0 0 630.47 140">
  <defs>
    <style>
      .cls-1 {
        fill: #abff02;
      }

      .cls-2 {
        fill: #fff;
      }
    </style>
  </defs>
  <g id="Layer_1" data-name="Layer 1">
    <g>
      <path class="cls-1" d="M26.87,0c-2.65,0-5.19,1.05-7.07,2.93L2.94,19.78c-1.88,1.88-2.94,4.43-2.94,7.09v110.52c0,1.44,1.17,2.61,2.61,2.61h98.11c2.65,0,5.19-1.05,7.07-2.93l29.28-29.29c1.88-1.87,2.93-4.42,2.93-7.07V2.61c0-1.44-1.17-2.61-2.61-2.61H26.87ZM120,45.75c0,2.35-1.9,4.25-4.25,4.25h-50.85c-2.27,0-4.32,1.86-4.25,4.14.04.99.44,1.9,1.08,2.59.06.07.12.13.19.19l21.83,21.84c.8.79,1.25,1.88,1.25,3v33.99c0,2.35-1.9,4.25-4.25,4.25h-21.5c-2.35,0-4.25-1.9-4.25-4.25v-61.5c0-2.35-1.9-4.25-4.25-4.25h-26.5c-2.35,0-4.25-1.9-4.25-4.25v-21.5c0-2.35,1.9-4.25,4.25-4.25h28.98c1.13,0,2.22.45,3.02,1.25l21.79,21.79c.08.09.18.19.27.27.66.6,1.51.98,2.47,1.04,2.32.13,4.22-1.93,4.22-4.25v-15.85c0-2.35,1.9-4.25,4.25-4.25h26.5c2.35,0,4.25,1.9,4.25,4.25v21.5Z"/>
      <g>
        <path class="cls-2" d="M170,40.58v-13.85h70.41v13.85h-26.73v72.68h-17.07V40.58h-26.61Z"/>
        <path class="cls-2" d="M262.14,102.04c5.01,0,10.14-1.79,13.49-7.4h16.95c-3.46,9.55-12.89,20.17-30.31,20.17-20.65,0-32.7-15.4-32.7-33.89s13.25-33.3,32.22-33.3,32.22,15.4,31.51,38.07h-47.38c.84,10.98,8.47,16.35,16.23,16.35ZM276.58,74.36c-.36-10.86-8-14.68-14.92-14.68-6.21,0-14.2,3.94-15.52,14.68h30.43Z"/>
        <path class="cls-2" d="M331.37,64.57c-8.12,0-13.49,2.98-13.49,15.04v33.66h-16.47V49.06h16.23v11.22c3.7-7.88,9.55-11.1,16.95-11.1,1.07,0,2.51.12,3.58.24v15.52c-2.39-.24-4.42-.36-6.8-.36Z"/>
        <path class="cls-2" d="M403.45,79.85v33.42h-16.47v-37.36c0-7.04-.6-15.04-10.26-15.04-10.98,0-12.77,9.19-12.77,18.98v33.42h-16.47V49.06h16.47v8.47c3.58-6.33,10.14-9.91,17.9-9.91,10.98,0,15.75,5.85,18.26,10.5,5.01-7.16,11.46-10.5,21.12-10.5,16.11,0,21.72,10.03,21.72,25.18v40.46h-16.47v-37.36c0-7.04-.6-15.04-10.26-15.04-10.98,0-12.77,9.19-12.77,18.98Z"/>
        <path class="cls-2" d="M469.1,42.01h-16.47v-15.28h16.47v15.28ZM469.1,113.26h-16.47V49.06h16.47v64.21Z"/>
        <path class="cls-2" d="M514.81,47.62c15.4,0,22.2,9.43,22.2,25.18v40.46h-16.47v-36.88c0-8.36-1.79-15.51-11.1-15.51-10.86,0-13.25,8.83-13.25,18.98v33.42h-16.47V49.06h16.47v8.47c3.7-6.45,10.74-9.91,18.62-9.91Z"/>
        <path class="cls-2" d="M544.89,95.96c0-15.16,17.07-19.69,42.25-22.56v-1.07c0-9.9-5.37-13.37-12.05-13.37-6.33,0-11.58,3.34-11.93,10.38h-15.4c1.19-12.65,11.7-21.96,28.17-21.96,15.28,0,27.69,6.56,27.69,28.28,0,2.03-.24,10.5-.24,16.35,0,10.14.72,15.87,1.91,21.24h-15.16c-.48-2.03-.84-4.89-1.07-8-4.53,6.68-11.34,9.55-21.01,9.55-12.29,0-23.15-7.16-23.15-18.86ZM561.84,95.12c0,4.65,3.7,8.47,11.1,8.47,10.26,0,14.68-5.61,14.68-14.92v-4.77c-18.38,1.91-25.78,4.06-25.78,11.22Z"/>
        <path class="cls-2" d="M614,113.26V26.74h16.47v86.53h-16.47Z"/>
      </g>
    </g>
  </g>
</svg>